<?xml version="1.0" encoding="UTF-8"?>
<svg width="7344px" height="865px" viewBox="0 0 7344 865" version="1.1" xmlns="http://www.w3.org/2000/svg" xmlns:xlink="http://www.w3.org/1999/xlink">
    <title>Trees</title>
    <g id="Page-1" stroke="none" stroke-width="1" fill="none" fill-rule="evenodd">
        <g id="Trees">
            <path d="M412,0.0032 C420,0.0032 428,0.0032 436,0.0032 C441.048,7.3832 434.857,16.6332 440,24.0032 C446.667,24.0032 453.333,24.0032 460,24.0032 C465.048,31.3832 458.857,40.6332 464,48.0032 C470.667,48.0032 477.333,48.0032 484,48.0032 C489.048,55.3832 482.857,64.6332 488,72.0032 C494.667,72.0032 501.333,72.0032 508,72.0032 C513.048,79.3832 506.857,88.6332 512,96.0032 C518.667,96.0032 525.333,96.0032 532,96.0032 C537.048,103.3832 530.857,112.6332 536,120.0032 C542.667,120.0032 549.333,120.0032 556,120.0032 C561.048,127.3832 554.857,136.6332 560,144.0032 C566.667,144.0032 573.333,144.0032 580,144.0032 C585.048,151.3832 578.857,160.6332 584,168.0032 C598.667,168.0032 613.333,168.0032 628,168.0032 C632.251,175.6332 628.598,183.4532 629.92,189.9032 C622.692,197.0832 614.086,191.1732 608,196.0032 C603.665,201.7932 608.032,209.2032 603.747,216.5032 C581.934,221.0732 558.548,214.6432 536,220.0032 C532.803,226.6732 532.806,233.3332 536,240.0032 C542.667,240.0032 549.333,240.0032 556,240.0032 C561.048,247.3832 554.857,256.6332 560,264.0032 C566.667,264.0032 573.333,264.0032 580,264.0032 C585.048,271.3832 578.857,280.6332 584,288.0032 C590.667,288.0032 597.333,288.0032 604,288.0032 C609.048,295.3832 602.857,304.6332 608,312.0032 C614.667,312.0032 621.333,312.0032 628,312.0032 C633.048,319.3832 626.857,328.6332 632,336.0032 C646.667,336.0032 661.333,336.0032 676,336.0032 C680.251,343.6332 676.598,351.4532 677.92,357.9032 C670.692,365.0832 662.086,359.1732 656,364.0032 C651.89,369.8332 655.645,377.1332 652.115,384.5732 C621.847,389.1432 590.598,382.3932 560,388.0032 C556.803,394.6732 556.806,401.3332 560,408.0032 C566.667,408.0032 573.333,408.0032 580,408.0032 C585.048,415.3832 578.857,424.6332 584,432.0032 C590.667,432.0032 597.333,432.0032 604,432.0032 C609.048,439.3832 602.857,448.6332 608,456.0032 C614.667,456.0032 621.333,456.0032 628,456.0032 C633.048,463.3832 626.856,472.6332 632,480.0032 C638.667,480.0032 645.333,480.0032 652,480.0032 C657.048,487.3832 650.856,496.6332 656,504.0032 C670.667,504.0032 685.333,504.0032 700,504.0032 C704.251,511.6332 700.598,519.4532 701.92,525.9032 C694.692,533.0832 686.086,527.1732 680,532.0032 C675.725,537.8032 679.983,545.2032 675.629,552.6432 C645.847,557.1432 614.598,550.3932 584,556.0032 C580.804,562.6732 580.806,569.3332 584,576.0032 C590.667,576.0032 597.333,576.0032 604,576.0032 C609.048,583.3832 602.856,592.6332 608,600.0032 C614.667,600.0032 621.333,600.0032 628,600.0032 C633.048,607.3832 626.856,616.6332 632,624.0032 C638.667,624.0032 645.333,624.0032 652,624.0032 C657.048,631.3832 650.856,640.6332 656,648.0032 C662.667,648.0032 669.333,648.0032 676,648.0032 C681.048,655.3832 674.856,664.6332 680,672.0032 C686.667,672.0032 693.333,672.0032 700,672.0032 C704.049,679.6432 701.057,687.4432 701.633,694.1932 C694.692,701.0832 686.086,695.1732 680,700.0032 C675.836,705.8432 679.869,713.2032 676.291,719.5332 C670.658,723.9832 663.747,721.8432 657.36,721.8732 C607.419,722.0632 557.477,721.9032 507.536,722.0632 C501.022,722.0932 494.198,720.3032 488,724.0032 C483.343,754.6832 487.361,785.5532 485.905,816.2932 C485.506,824.7032 487.966,833.3932 483.846,841.5232 C475.976,847.9832 466.448,847.3632 457.186,847.7032 C316.191,853.0132 175.133,851.7932 34.088,851.6932 C22.263,851.6932 9.843,853.2632 0,844.0032 C0,842.6732 0,841.3332 0,840.0032 C120,840.0032 240,840.0032 360,840.0032 C364.808,801.7732 360.283,763.4932 362.612,722.0932 C298.157,721.8032 235.534,722.1332 174.16,721.9032 C167.001,714.7932 172.719,706.1832 168.027,700.0632 C162.244,695.7832 154.914,699.8332 147.862,695.9632 C144.912,688.5132 144.933,680.3132 148,672.0032 C154.667,672.0032 161.333,672.0032 168,672.0032 C173.143,664.6332 166.952,655.3832 172,648.0032 C178.667,648.0032 185.333,648.0032 192,648.0032 C197.143,640.6332 190.952,631.3832 196,624.0032 C202.667,624.0032 209.333,624.0032 216,624.0032 C221.143,616.6332 214.952,607.3832 220,600.0032 C226.667,600.0032 233.333,600.0032 240,600.0032 C245.143,592.6332 238.952,583.3832 244,576.0032 C250.667,576.0032 257.333,576.0032 264,576.0032 C267.344,569.7432 266.341,563.3732 264.346,554.7532 C234.058,552.7032 203.238,555.0932 173.591,553.4932 C167.034,546.5432 172.844,537.9832 167.728,531.8132 C162.032,527.7932 154.705,531.9332 147.847,527.9332 C144.868,520.4532 144.944,512.2732 148,504.0032 C162.667,504.0032 177.333,504.0032 192,504.0032 C197.143,496.6332 190.952,487.3832 196,480.0032 C202.667,480.0032 209.333,480.0032 216,480.0032 C221.143,472.6332 214.952,463.3832 220,456.0032 C226.667,456.0032 233.333,456.0032 240,456.0032 C245.143,448.6332 238.952,439.3832 244,432.0032 C250.667,432.0032 257.333,432.0032 264,432.0032 C269.143,424.6332 262.952,415.3832 268,408.0032 C274.667,408.0032 281.333,408.0032 288,408.0032 C291.344,401.7432 290.341,395.3732 288.372,386.8732 C258.06,384.6432 227.243,387.0032 197.698,385.6032 C191.034,378.5432 196.844,369.9832 191.68,363.7532 C186.034,359.7832 178.684,364.0432 171.795,359.8032 C168.868,352.4532 168.945,344.2732 172,336.0032 C186.667,336.0032 201.333,336.0032 216,336.0032 C221.143,328.6332 214.952,319.3832 220,312.0032 C226.667,312.0032 233.333,312.0032 240,312.0032 C245.143,304.6332 238.952,295.3832 244,288.0032 C250.667,288.0032 257.333,288.0032 264,288.0032 C269.143,280.6332 262.952,271.3832 268,264.0032 C274.667,264.0032 281.333,264.0032 288,264.0032 C293.143,256.6332 286.952,247.3832 292,240.0032 C298.667,240.0032 305.333,240.0032 312,240.0032 C315.37,233.7532 314.316,227.3732 312.61,219.6932 C290.159,215.4232 267.056,220.1432 244.932,217.0232 C239.324,210.4232 244.532,202.0432 240.084,196.0432 C234.015,191.8232 226.695,195.9532 219.765,191.8532 C216.943,184.4032 216.918,176.2532 220,168.0032 C234.667,168.0032 249.333,168.0032 264,168.0032 C269.143,160.6332 262.952,151.3832 268,144.0032 C274.667,144.0032 281.333,144.0032 288,144.0032 C293.143,136.6332 286.952,127.3832 292,120.0032 C298.667,120.0032 305.333,120.0032 312,120.0032 C317.143,112.6332 310.952,103.3832 316,96.0032 C322.667,96.0032 329.333,96.0032 336,96.0032 C341.143,88.6332 334.952,79.3832 340,72.0032 C346.667,72.0032 353.333,72.0032 360,72.0032 C365.143,64.6332 358.952,55.3832 364,48.0032 C370.667,48.0032 377.333,48.0032 384,48.0032 C389.143,40.6332 382.952,31.3832 388,24.0032 C394.667,24.0032 401.333,24.0032 408,24.0032 C413.143,16.6332 406.952,7.3832 412,0.0032" id="Fill-8" fill="#90ABB7"></path>
            <path d="M0,844.0032 C121.914,844.0032 243.828,844.0032 365.807,844.0032 C367.211,842.6932 368.649,841.3532 370.097,840.0032 C408.054,840.0032 446.027,840.0032 484,840.0032 C485.333,837.4932 486.667,837.4932 488,840.0032 C637.333,840.0032 786.667,840.0032 936,840.0032 C937.828,838.4032 939.801,837.0032 941.909,835.7832 C964.632,831.3432 987.364,831.3332 1010.1,835.7332 C1012.21,836.9532 1014.18,838.3832 1016,840.0032 C1237.33,840.0032 1458.67,840.0032 1680,840.0032 C1682.08,838.8632 1684.31,838.2232 1686.68,838.0732 C1718.06,835.2332 1749.36,830.3432 1781.04,833.7932 C1796.86,832.0032 1812.66,832.3232 1828.48,833.7132 C1852.14,831.9032 1875.79,831.8632 1899.45,833.7032 C1915.56,832.1732 1931.67,832.0032 1947.77,833.7132 C1970.57,832.0832 1993.37,831.9932 2016.14,833.5932 C2022.69,834.3532 2028.75,832.9332 2034.01,830.2532 C2040.21,819.0832 2034.71,806.0232 2042.45,796.1832 C2044.25,794.4732 2046.1,794.4232 2048,796.0032 C2048,810.6732 2048,825.3332 2048,840.0032 C2054.9,843.7932 2062.39,841.9332 2069.57,841.9332 C2348.77,842.0432 2627.98,842.0732 2907.18,841.9432 C2931.71,841.9332 2955.94,837.3732 2980.65,837.8932 C3424.92,847.2032 3869.24,839.4232 4313.54,842.3632 C4331.25,842.4732 4347.11,835.4832 4363.65,833.8832 C4397.98,830.5832 4432.78,829.8032 4467.271,834.8732 C4478.33,837.6632 4489.57,838.1632 4500.95,838.1632 C4688.82,838.0832 4876.7,838.6932 5064.57,837.6132 C5102.94,837.3932 5141.24,830.1832 5179.9,832.1832 C5190.52,832.7332 5201.24,831.9832 5211.64,834.9732 C5222.71,837.7232 5233.96,838.1632 5245.33,838.1632 C5441.09,838.0832 5636.86,838.9032 5832.61,837.4232 C5871.59,837.1332 5910.63,830.8332 5949.89,832.2632 C5960.49,832.6432 5971.431,831.7232 5980,840.0032 C6164,840.0032 6348,840.0032 6532,840.0032 C6533.76,838.4732 6535.65,837.1332 6537.67,835.9632 C6544.36,832.7432 6551.5,834.0832 6558.5,833.8332 C6574.15,831.9632 6589.79,832.6632 6605.45,833.6632 C6651.8,831.6732 6698.15,831.7032 6744.471,833.5532 C6752.14,834.2532 6759.87,832.1532 6767.51,833.7132 C6778.8,835.1632 6788.6,833.3532 6793.78,821.5132 C6794.51,821.0032 6795.25,820.5032 6796,820.0032 C6797.53,819.5332 6798.94,819.9332 6799.34,821.4332 C6799.83,823.2732 6799.83,825.2532 6799.99,827.1732 C6800.32,831.0532 6799.28,835.0232 6800.78,838.7932 C6801.32,839.2132 6801.83,839.9532 6802.33,839.9532 C6982.891,840.0032 7163.44,840.0032 7344,840.0032 C7344,848.0032 7344,856.0032 7344,864.0032 C4896,864.0032 2448,864.0032 0,864.0032 C0,857.3332 0,850.6732 0,844.0032" id="Fill-9" fill="#85B0AB"></path>
            <path d="M4468,840.0032 C4430.02,840.0032 4392.05,840.0032 4354.101,840.0032 C4352.64,841.3632 4351.21,842.7032 4349.81,844.0032 C3589.54,844.0032 2829.35,844.0032 2069.16,843.9732 C2062.58,843.9732 2055.95,844.6632 2049.43,843.3532 C2047.92,843.0432 2047.53,841.5332 2048,840.0032 C2341.33,840.0032 2634.67,840.0032 2928,840.0032 C2929.83,838.4032 2931.8,837.0032 2933.91,835.7832 C2956.63,831.3432 2979.36,831.3332 3002.1,835.7332 C3004.21,836.9532 3006.18,838.3832 3008,840.0032 C3453.33,840.0032 3898.67,840.0032 4344,840.0032 C4348.57,801.7732 4344.67,763.4932 4346.34,722.0332 C4282.15,721.9032 4219.54,722.0432 4158.21,721.9532 C4151,714.7932 4156.72,706.1832 4152.03,700.0632 C4146.24,695.7832 4138.911,699.8332 4131.86,695.9632 C4128.91,688.5132 4128.93,680.3132 4132,672.0032 C4138.67,672.0032 4145.33,672.0032 4152,672.0032 C4157.14,664.6332 4150.95,655.3832 4156,648.0032 C4162.67,648.0032 4169.33,648.0032 4176,648.0032 C4181.14,640.6332 4174.95,631.3832 4180,624.0032 C4186.67,624.0032 4193.33,624.0032 4200,624.0032 C4205.14,616.6332 4198.95,607.3832 4204,600.0032 C4210.67,600.0032 4217.33,600.0032 4224,600.0032 C4229.14,592.6332 4222.95,583.3832 4228,576.0032 C4234.67,576.0032 4241.33,576.0032 4248,576.0032 C4251.93,569.7632 4249.15,563.3332 4249.98,554.8632 C4218.06,552.7032 4187.24,555.0932 4157.59,553.4932 C4151.04,546.5432 4156.84,537.9832 4151.73,531.8132 C4146.03,527.7932 4138.71,531.9332 4131.85,527.9332 C4128.87,520.4532 4128.95,512.2732 4132,504.0032 C4146.67,504.0032 4161.33,504.0032 4176,504.0032 C4181.14,496.6332 4174.95,487.3832 4180,480.0032 C4186.67,480.0032 4193.33,480.0032 4200,480.0032 C4205.14,472.6332 4198.95,463.3832 4204,456.0032 C4210.67,456.0032 4217.33,456.0032 4224,456.0032 C4229.14,448.6332 4222.95,439.3832 4228,432.0032 C4234.67,432.0032 4241.33,432.0032 4248,432.0032 C4253.14,424.6332 4246.95,415.3832 4252,408.0032 C4258.67,408.0032 4265.33,408.0032 4272,408.0032 C4275.93,401.7632 4273.15,395.3332 4273.98,386.8632 C4242.06,384.7032 4211.24,387.0932 4181.59,385.4932 C4175.04,378.5432 4180.84,369.9832 4175.73,363.8132 C4170.03,359.7932 4162.71,363.9332 4155.85,359.9332 C4152.87,352.4532 4152.94,344.2732 4156,336.0032 C4170.67,336.0032 4185.33,336.0032 4200,336.0032 C4205.14,328.6332 4198.95,319.3832 4204,312.0032 C4210.67,312.0032 4217.33,312.0032 4224,312.0032 C4229.14,304.6332 4222.95,295.3832 4228,288.0032 C4234.67,288.0032 4241.33,288.0032 4248,288.0032 C4253.14,280.6332 4246.95,271.3832 4252,264.0032 C4258.67,264.0032 4265.33,264.0032 4272,264.0032 C4277.14,256.6332 4270.95,247.3832 4276,240.0032 C4282.67,240.0032 4289.33,240.0032 4296,240.0032 C4299.37,233.7532 4298.32,227.3732 4296.61,219.6932 C4274.16,215.4132 4251.06,220.1432 4229.02,217.0332 C4223.14,210.4632 4228.81,201.9732 4223.81,195.8532 C4218.01,191.8232 4210.7,195.9532 4203.76,191.8532 C4200.94,184.4032 4200.92,176.2532 4204,168.0032 C4218.67,168.0032 4233.33,168.0032 4248,168.0032 C4253.14,160.6332 4246.95,151.3832 4252,144.0032 C4258.67,144.0032 4265.33,144.0032 4272,144.0032 C4277.14,136.6332 4270.95,127.3832 4276,120.0032 C4282.67,120.0032 4289.33,120.0032 4296,120.0032 C4301.14,112.6332 4294.95,103.3832 4300,96.0032 C4306.67,96.0032 4313.33,96.0032 4320,96.0032 C4325.14,88.6332 4318.95,79.3832 4324,72.0032 C4330.67,72.0032 4337.33,72.0032 4344,72.0032 C4349.14,64.6332 4342.95,55.3832 4348,48.0032 C4354.67,48.0032 4361.33,48.0032 4368,48.0032 C4373.14,40.6332 4366.95,31.3832 4372,24.0032 C4378.67,24.0032 4385.33,24.0032 4392,24.0032 C4397.14,16.6332 4390.95,7.3832 4396,0.0032 C4403.33,0.0032 4410.66,0.0032 4418.01,0.0032 C4421.86,3.1432 4419.41,7.4332 4419.94,11.1632 C4420.5,15.0132 4419.28,19.0232 4420.78,22.7832 C4421.32,23.2132 4421.82,23.9432 4422.32,23.9532 C4428.96,24.0332 4435.59,24.0032 4441.86,24.0032 C4443.51,25.0232 4444.021,26.1032 4444.01,27.4832 C4443.98,33.4832 4443.97,39.4832 4444.04,45.4732 C4444.05,46.0032 4444.7,46.5232 4445.3,47.4332 C4452.08,49.0332 4459.371,47.1032 4466.51,48.4632 C4469.38,51.9032 4467.46,56.0232 4467.99,59.8032 C4468.52,63.6132 4466.88,67.6632 4469.29,71.3832 C4476.31,73.2232 4483.63,70.8232 4490.58,72.5732 C4491.12,73.1632 4491.94,73.6432 4491.94,74.1332 C4492.03,80.7832 4492,87.4332 4492,94.0232 C4495.3,97.7632 4499.55,95.4232 4503.29,95.9532 C4507.13,96.5032 4511.14,95.2032 4514.871,96.8632 C4515.271,97.4232 4515.95,97.9332 4515.95,98.4532 C4516.021,105.0732 4516,111.6932 4516,117.8832 C4518.25,121.0132 4521.12,119.8132 4523.61,119.9632 C4526.27,120.1332 4528.95,119.8432 4531.6,120.0532 C4534.12,120.2432 4536.891,118.9932 4539.43,121.3832 C4541.181,128.1732 4538.95,135.4832 4540.53,142.5332 C4541.01,143.0132 4541.48,143.8932 4541.96,143.8932 C4548.61,143.9832 4555.27,143.9532 4561.9,143.9532 C4562.62,145.0332 4563.87,146.0432 4563.91,147.1032 C4564.101,153.0932 4563.98,159.0932 4564.03,165.0932 C4564.04,165.6532 4564.51,166.2132 4564.771,166.7732 C4565.26,167.1832 4565.76,167.9532 4566.26,167.9532 C4580.89,168.0132 4595.53,168.0032 4610,168.0032 C4610.64,168.6432 4611.5,169.0932 4611.52,169.5832 C4611.75,175.5232 4611.8,181.4632 4612.04,187.4032 C4612.1,188.8832 4612,190.0732 4610.59,191.3832 C4605.351,193.2232 4599.33,191.0332 4593.85,192.3032 C4591.76,194.3132 4589.84,196.1632 4587.98,197.9532 C4587.98,203.4032 4587.98,208.7232 4587.98,214.0432 C4586.89,214.7032 4585.83,215.9132 4584.76,215.9232 C4564.11,216.0332 4543.45,216.0032 4522.29,216.0032 C4520.661,217.5132 4518.76,219.2832 4517.03,220.8832 C4516.6,221.6332 4516.021,222.1932 4516.04,222.7232 C4516.24,227.9832 4515.471,233.2732 4516.4,238.4032 C4516.971,238.9732 4517.44,239.8532 4517.92,239.8532 C4524.57,239.9432 4531.221,239.9232 4537.82,239.9232 C4538.58,241.0132 4539.87,242.0132 4539.9,243.0432 C4540.101,249.0432 4539.98,255.0432 4540.03,261.0332 C4540.04,261.6032 4540.49,262.1732 4540.73,262.7332 C4541.22,263.1532 4541.71,263.9432 4542.2,263.9532 C4548.85,264.0332 4555.49,264.0032 4562,264.0032 C4562.61,264.6132 4563.39,265.0232 4563.5,265.5632 C4564.92,272.6232 4562.97,279.9232 4564.7,287.3132 C4572,288.8532 4579.27,287.2932 4586.42,288.3732 C4589.47,291.7732 4587.45,295.9132 4587.98,299.6932 C4588.52,303.5032 4586.95,307.5432 4589.25,311.3632 C4596.22,313.2532 4603.54,310.8732 4610.5,312.5432 C4611.05,313.0832 4611.93,313.5432 4611.94,314.0132 C4612.03,321.3432 4612,328.6732 4612,336.0032 C4627.34,341.0332 4643.36,335.6632 4659.02,339.0832 C4665.621,344.3832 4665.71,351.1432 4662.97,358.4832 C4655.16,367.1532 4643.2,371.1232 4637.721,382.9832 C4634.48,390.0132 4625.42,390.0832 4618.04,390.3932 C4602.72,391.0332 4587.39,390.3432 4572.08,390.8032 C4565.03,391.0232 4557.3,389.2832 4550.14,396.9532 C4567.61,404.0332 4570.76,425.7032 4587.891,430.5032 C4593.75,436.6932 4593.99,444.0332 4598.311,449.2232 C4615.44,463.4432 4634.95,475.0232 4647.6,494.2732 C4659.05,499.5732 4673.121,494.4632 4684.9,503.7832 C4692.36,515.9332 4685.94,523.2732 4677.74,535.1332 C4658.15,563.4232 4631.22,557.2132 4604.89,557.9332 C4595.03,558.2132 4584.85,555.8432 4575.54,560.8432 C4571.61,563.8932 4570.81,567.3532 4574.16,571.3732 C4590.37,575.1832 4595.02,594.8332 4609.81,597.0532 C4616.94,602.4132 4617.39,609.7932 4621.85,614.6232 C4627.36,619.0732 4635.53,619.6632 4639.32,626.6432 C4642.08,631.8732 4642.83,638.1032 4647.42,642.3932 C4660.9,648.7232 4669.01,661.6932 4681.68,669.2332 C4690.161,674.2732 4692.91,686.1932 4686.71,691.8932 C4671.11,706.2432 4661.521,728.4132 4633.63,727.6532 C4589.8,726.4532 4545.9,724.9932 4502.01,725.8532 C4493.38,726.0232 4484.5,724.9332 4478.14,732.7132 C4472.11,756.4332 4476.63,780.5232 4475.24,804.3532 C4474.59,815.5532 4476.79,827.1332 4470.681,837.5932 C4469.8,838.4032 4468.9,839.2032 4468,840.0032" id="Fill-61" fill="#90ABB7"></path>
            <path d="M5212,840.0032 C5174.08,840.0032 5136.15,840.0032 5098.2,840.0032 C5096.78,841.3232 5095.34,842.6632 5093.9,844.0032 C4890.98,844.0032 4688.05,844.0132 4485.13,843.9532 C4479.9,843.9532 4474.58,844.8232 4469.42,843.3632 C4467.92,842.9332 4467.53,841.5332 4468,840.0032 C4473.57,834.5132 4480.6,832.6532 4488.061,832.6532 C4576.971,832.5832 4665.891,830.7332 4754.78,833.5332 C4779.061,831.9832 4803.34,831.5832 4827.601,833.6332 C4901.55,831.1132 4975.54,833.2632 5049.51,832.3832 C5059.93,832.2632 5070.87,834.5432 5083.05,826.8732 C5084.96,796.5532 5086.3,764.9432 5082.12,733.3332 C5076.16,724.8632 5067.23,725.8432 5058.59,725.8732 C5016.04,726.0132 4973.51,727.5832 4930.96,727.0532 C4914.59,726.8532 4898.54,727.0632 4890.96,708.2332 C4889.42,704.4132 4884.681,703.5632 4881.52,701.2132 C4867.32,690.5932 4867.561,678.1932 4880.84,667.0332 C4894.75,655.3432 4906.51,641.2732 4919.67,628.8432 C4940.5,609.1732 4958.36,585.9532 4984.11,571.9232 C4985.65,570.2032 4987.47,568.6432 4987.81,566.1032 C4987.75,563.4532 4985.96,561.9132 4984,560.4632 C4970.26,555.5032 4956.25,558.3232 4942.38,558.4932 C4928.5,558.6632 4914.43,560.7732 4900.39,553.9932 C4893.44,544.4632 4888.1,532.2732 4876.05,530.1832 C4869.54,520.0132 4869.58,511.9832 4875,503.9832 C4885.51,494.4832 4899.52,499.2332 4912.39,494.4132 C4924.66,475.6532 4944.32,463.3132 4961.95,448.7632 C4971.82,426.5532 4993.33,414.9532 5009.49,394.7032 C4982.08,384.6432 4952.26,396.6132 4927.96,387.8632 C4919.55,382.5232 4918.16,375.3732 4913.54,370.6232 C4909.431,365.2432 4901.78,364.4232 4898.09,358.5632 C4894.7,352.1432 4895.13,346.0532 4899.35,339.8932 C4915.39,334.7232 4932.25,341.5532 4948,336.0032 C4948,328.6832 4948,321.3532 4948,314.0332 C4949.04,313.3532 4950.07,312.1232 4951.14,312.0932 C4957.69,311.9132 4964.25,312.0032 4970.14,312.0032 C4971.19,310.7232 4971.94,310.2332 4971.95,309.7232 C4972.03,303.0932 4972,296.4632 4972,290.0032 C4972.65,289.3532 4973.06,288.5632 4973.6,288.4632 C4980.66,287.1532 4987.95,288.9532 4995.29,287.3232 C4996.88,279.9832 4995.271,272.7232 4996.38,265.5732 C4999.78,262.5432 5003.91,264.5532 5007.69,264.0232 C5011.5,263.4932 5015.53,265.0432 5019.38,262.7532 C5021.22,255.7932 5018.9,248.4832 5020.54,241.4632 C5021.04,240.9632 5021.51,240.0832 5021.98,240.0832 C5028.64,239.9932 5035.29,240.0232 5041.94,240.0232 C5042.63,238.9632 5043.88,237.9432 5043.91,236.8832 C5044.1,230.9032 5044.021,224.9032 5043.97,218.9132 C5043.96,218.3532 5043.49,217.7932 5043.23,217.2332 C5042.74,216.8232 5042.24,216.0532 5041.75,216.0532 C5019.13,215.9932 4996.51,216.0032 4973.67,216.0032 C4969.69,208.6932 4973.88,200.4632 4971.16,193.1432 C4970.57,192.7232 4970.05,192.0532 4969.53,192.0532 C4962.92,191.9832 4956.3,192.0032 4950,192.0032 C4949.22,191.2232 4948.351,190.7632 4948.34,190.2832 C4948.16,183.6632 4948.07,177.0432 4948.05,170.4232 C4948.05,169.9132 4948.74,169.4032 4949.29,168.6532 C4954.23,167.0932 4959.52,168.3032 4964.73,168.0532 C4969.38,167.8232 4974.04,168.0032 4978.71,168.0032 C4983.97,168.0032 4989.23,168.0032 4994.14,168.0032 C4997.35,164.0532 4995.65,159.9632 4995.94,156.1632 C4996.221,152.3132 4996,148.4332 4996,144.9432 C5004.32,142.8032 5011.641,145.1832 5018.58,143.4332 C5019.12,142.8432 5019.94,142.3632 5019.94,141.8732 C5020.03,135.2232 5020,128.5732 5020,121.6732 C5027.27,117.6732 5035.49,121.8432 5042.851,119.1632 C5043.25,118.6132 5043.95,118.1032 5043.95,117.5932 C5044.03,110.9732 5044,104.3532 5044,97.5232 C5051.521,93.9232 5059.72,97.9132 5067.35,95.0432 C5069.06,87.8932 5067.07,80.6032 5068.48,73.4732 C5071.93,70.6332 5076.04,72.5432 5079.82,72.0132 C5083.62,71.4832 5087.67,73.1232 5091.38,70.7132 C5093.22,63.6932 5090.83,56.3832 5092.561,49.4332 C5093.15,48.8932 5093.62,48.0632 5094.11,48.0632 C5100.76,47.9732 5107.41,48.0032 5114.34,48.0032 C5118.33,40.7532 5114.181,32.5232 5116.83,25.1632 C5117.37,24.7632 5117.88,24.0532 5118.39,24.0532 C5125.01,23.9732 5131.63,24.0032 5138.45,24.0032 C5142.12,16.5032 5138.05,8.2932 5140.83,1.0832 C5141.59,0.6332 5142.13,0.0532 5142.67,0.0432 C5149.26,-0.0168 5155.86,0 5162.13,0 C5165.38,3.9032 5163.46,8.0232 5163.99,11.7932 C5164.52,15.6032 5162.89,19.6532 5165.28,23.3832 C5172.29,25.2332 5179.61,22.8432 5186.57,24.5632 C5187.1,25.1332 5187.94,25.6032 5187.94,26.0932 C5188.03,32.7432 5188,39.3932 5188,46.3532 C5195.23,50.3232 5203.46,46.2032 5210.83,48.8332 C5211.23,49.3532 5211.94,49.8532 5211.95,50.3732 C5212.03,56.9932 5212,63.6132 5212,69.8532 C5213.03,71.5332 5214.12,72.0332 5215.5,72.0232 C5221.49,71.9832 5227.49,71.9732 5233.48,72.0532 C5234,72.0532 5234.521,72.7032 5235.43,73.3032 C5237.01,80.0832 5235.13,87.3632 5236.45,94.5032 C5239.88,97.4032 5243.98,95.6432 5247.78,95.9332 C5251.62,96.2332 5255.51,96.0032 5259.03,96.0032 C5261.24,104.2732 5258.851,111.5932 5260.561,118.5632 C5261.11,119.0932 5261.58,119.9332 5262.061,119.9432 C5268.72,120.0332 5275.37,120.0032 5282.36,120.0032 C5286.31,127.2132 5282.21,135.4332 5284.82,142.8232 C5285.33,143.2232 5285.83,143.9432 5286.34,143.9532 C5292.97,144.0332 5299.6,144.0032 5305.86,144.0032 C5307.51,145.0232 5308.021,146.1032 5308.01,147.4832 C5307.98,153.4732 5307.97,159.4632 5308.04,165.4632 C5308.05,165.9832 5308.69,166.5032 5309.03,167.0332 C5309.56,167.3532 5310.09,167.9632 5310.62,167.9632 C5325.21,168.0132 5339.81,168.0032 5354.25,168.0032 C5356.51,174.0432 5356.62,180.4332 5354.79,191.2432 C5349.12,193.1932 5343.11,190.9632 5338.641,192.2432 C5335.73,194.6432 5333.69,196.3232 5331.88,197.8132 C5331.88,203.6432 5331.88,208.9432 5331.88,214.0432 C5330.97,215.5232 5329.89,216.0232 5328.51,216.0132 C5307.87,215.9932 5287.23,216.0032 5266.23,216.0032 C5264.53,217.6132 5262.63,219.4032 5260.79,221.1332 C5260.51,222.4532 5260.01,223.6832 5260.04,224.9032 C5260.18,229.4832 5259.4,234.1032 5260.51,238.2732 C5261.17,239.0132 5261.61,239.9332 5262.05,239.9432 C5268.71,240.0332 5275.36,240.0032 5282.37,240.0032 C5286.31,247.2132 5282.22,255.4232 5284.81,262.8132 C5285.32,263.2132 5285.82,263.9432 5286.33,263.9532 C5292.96,264.0332 5299.59,264.0032 5305.87,264.0032 C5307.5,265.0132 5308.021,266.1032 5308.01,267.4732 C5307.98,273.4632 5307.97,279.4532 5308.04,285.4432 C5308.05,285.9732 5308.68,286.4932 5309.26,287.3932 C5316.05,288.9732 5323.33,287.1732 5330.47,288.4232 C5333.42,291.8432 5331.63,295.9532 5331.93,299.7432 C5332.24,303.5932 5332,307.4832 5332,311.0232 C5340.25,313.2532 5347.561,310.8632 5354.38,312.5132 C5355.03,313.1232 5355.93,313.5732 5355.94,314.0332 C5356.03,321.3532 5356,328.6832 5356,336.0032 C5371.34,341.0332 5387.36,335.6632 5403.02,339.0832 C5409.62,344.3832 5409.71,351.1432 5406.97,358.4832 C5399.16,367.1532 5387.2,371.1232 5381.721,382.9832 C5378.48,390.0132 5369.42,390.0832 5362.04,390.3932 C5346.72,391.0332 5331.39,390.3432 5316.08,390.8032 C5309.03,391.0232 5301.3,389.2832 5294.14,396.9532 C5311.61,404.0332 5314.76,425.7032 5331.891,430.5032 C5337.75,436.6932 5337.99,444.0332 5342.311,449.2232 C5359.44,463.4432 5378.95,475.0232 5391.601,494.2732 C5403.05,499.5732 5417.12,494.4632 5428.9,503.7832 C5436.36,515.9332 5429.94,523.2732 5421.74,535.1332 C5402.15,563.4232 5375.22,557.2132 5348.89,557.9332 C5339.03,558.2132 5328.85,555.8432 5319.54,560.8432 C5315.61,563.8932 5314.81,567.3532 5318.16,571.3732 C5334.37,575.1832 5339.02,594.8332 5353.81,597.0532 C5360.94,602.4132 5361.39,609.7932 5365.85,614.6232 C5371.36,619.0732 5379.53,619.6632 5383.32,626.6432 C5386.08,631.8732 5386.83,638.1032 5391.42,642.3932 C5404.9,648.7232 5413.01,661.6932 5425.68,669.2332 C5434.161,674.2732 5436.91,686.1932 5430.71,691.8932 C5415.11,706.2432 5405.521,728.4132 5377.63,727.6532 C5333.8,726.4532 5289.9,724.9932 5246.01,725.8532 C5237.38,726.0232 5228.5,724.9332 5222.14,732.7132 C5216.11,756.4332 5220.63,780.5232 5219.24,804.3532 C5218.59,815.5532 5220.79,827.1332 5214.681,837.5932 C5213.8,838.4032 5212.9,839.2032 5212,840.0032" id="Fill-62" fill="#90ABB7"></path>
            <path d="M5980,840.0032 C5942.07,840.0032 5904.15,840.0032 5866.221,840.0032 C5864.78,841.3332 5863.33,842.6732 5861.89,844.0032 C5650.971,844.0032 5440.05,844.0132 5229.13,843.9532 C5223.9,843.9532 5218.58,844.8232 5213.42,843.3632 C5211.92,842.9332 5211.53,841.5332 5212,840.0032 C5217.57,834.5132 5224.6,832.6532 5232.061,832.6532 C5320.971,832.5832 5409.9,830.7332 5498.79,833.5332 C5523.09,831.9732 5547.4,831.5932 5571.681,833.6332 C5652.96,831.0332 5734.271,833.2332 5815.57,832.4032 C5826.12,832.3032 5836.91,833.8832 5850.55,828.1232 C5853.49,797.4732 5854.17,765.3832 5849.97,733.2332 C5844.43,725.8932 5836.53,725.7832 5828.41,725.8432 C5806.55,726.0132 5784.67,725.2632 5762.851,726.1632 C5749.88,726.7032 5741.17,723.0432 5732.57,712.1432 C5723.13,700.1732 5711.851,688.6932 5699.81,679.3332 C5688.83,670.8032 5684.41,662.0132 5685.95,649.0732 C5685.64,642.4432 5685.21,635.7932 5688.14,629.5632 C5695.4,618.0132 5712.52,615.3432 5714.26,598.9632 C5731.55,594.6632 5737.71,575.8332 5754.05,570.9832 C5757.2,566.7932 5756.37,563.3132 5752.141,560.4532 C5733.061,555.0332 5713.66,558.1132 5694.52,558.2132 C5679.59,558.2832 5666.61,557.6332 5659.94,541.4332 C5656.94,534.1432 5647.46,534.0932 5641.52,526.2432 C5637.54,520.1032 5637.58,512.0632 5642.95,504.0332 C5653.431,494.4832 5667.44,499.2232 5680.351,494.4432 C5692.58,475.6732 5712.26,463.3532 5729.92,448.8432 C5733.61,444.0232 5734.31,437.6932 5739.04,431.3732 C5756.14,426.8932 5759.54,404.7832 5777.13,396.4432 C5750.01,384.4832 5720.021,397.0532 5692.161,386.1232 C5687.38,373.6232 5676.13,366.6632 5665.38,359.1232 C5662.17,352.5232 5662.98,346.3732 5667.22,339.8932 C5683.15,334.7232 5700.16,341.4932 5716,336.0032 C5716,328.6732 5716,321.3432 5716,313.6132 C5723.181,309.6932 5731.41,313.7632 5738.81,311.2032 C5739.2,310.6932 5739.94,310.2032 5739.95,309.6932 C5740.03,303.0632 5740,296.4232 5740,290.1332 C5741.01,288.5032 5742.09,287.9832 5743.46,287.9932 C5749.46,288.0232 5755.46,288.0332 5761.45,287.9632 C5761.98,287.9532 5762.5,287.3232 5763.43,286.7132 C5764.99,279.9432 5763.14,272.6532 5764.44,265.5132 C5767.87,262.5932 5771.99,264.5532 5775.77,264.0232 C5779.58,263.4832 5783.63,265.1032 5787.37,262.7332 C5789.25,255.7232 5786.83,248.4032 5788.561,241.4332 C5789.13,240.9032 5789.6,240.0632 5790.09,240.0632 C5796.74,239.9732 5803.4,240.0032 5810.021,240.0032 C5812.5,235.5732 5812.5,235.5732 5811.13,217.1332 C5810.62,216.7532 5810.11,216.0532 5809.6,216.0532 C5786.99,215.9932 5764.37,216.0032 5742.16,216.0032 C5740.45,214.9632 5739.97,213.8732 5739.98,212.4832 C5740.021,206.4932 5740.03,200.4932 5739.95,194.5032 C5739.95,193.9732 5739.29,193.4632 5738.68,192.5732 C5731.9,190.9432 5724.61,192.9332 5717.53,191.5332 C5715.5,185.6132 5715.411,177.3332 5717.311,168.5732 C5722.46,167.2632 5727.75,168.2532 5732.98,168.0432 C5737.63,167.8532 5742.3,168.0032 5746.96,168.0032 C5752.21,168.0032 5757.46,168.0032 5762.06,168.0032 C5763.12,166.8432 5763.94,166.3632 5763.94,165.8832 C5764.03,159.2332 5764,152.5732 5764,145.6832 C5771.27,141.6632 5779.51,145.8632 5786.86,143.1632 C5787.26,142.5932 5787.95,142.0832 5787.95,141.5732 C5788.021,134.9432 5788,128.3232 5788,121.4632 C5795.56,118.0232 5803.75,121.8232 5811.31,119.1132 C5813.14,111.8532 5810.99,104.5532 5812.51,97.4932 C5812.99,97.0132 5813.45,96.1432 5813.931,96.1332 C5820.58,96.0432 5827.23,96.0732 5833.84,96.0732 C5834.59,94.9832 5835.87,93.9832 5835.9,92.9432 C5836.1,86.9532 5835.98,80.9532 5836.03,74.9632 C5836.04,74.3932 5836.49,73.8332 5836.74,73.2632 C5837.23,72.8432 5837.721,72.0632 5838.21,72.0532 C5844.85,71.9732 5851.5,72.0032 5858.35,72.0032 C5862.28,64.6532 5858.09,56.4132 5861.03,48.6132 C5868,47.1632 5875.26,48.7032 5882.41,47.6332 C5885.48,44.2432 5883.45,40.1032 5883.98,36.3332 C5884.52,32.5132 5882.96,28.4732 5885.25,24.6332 C5892.21,22.7632 5899.53,25.1132 5906.55,23.4532 C5907.05,22.9532 5907.931,22.4832 5907.931,22.0132 C5908.021,15.3532 5907.99,8.6932 5907.99,2.0332 C5912.05,-0.4068 5912.05,-0.4068 5930.8,0.8032 C5931.2,1.3032 5931.94,1.8032 5931.95,2.3032 C5932.03,8.9332 5932,15.5732 5932,22.4032 C5939.431,26.2232 5947.67,21.9932 5955.38,25.0632 C5956.98,32.0632 5955.16,39.3432 5956.431,46.4832 C5959.86,49.4132 5963.97,47.6432 5967.77,47.9332 C5971.61,48.2432 5975.5,48.0032 5979.02,48.0032 C5981.25,56.2732 5978.83,63.5932 5980.561,70.5732 C5981.12,71.0932 5981.59,71.9432 5982.08,71.9432 C5988.73,72.0332 5995.39,72.0032 6002.34,72.0032 C6006.34,79.2432 6002.181,87.4732 6004.83,94.8432 C6005.37,95.2432 6005.88,95.9532 6006.391,95.9532 C6013.01,96.0332 6019.64,96.0032 6026.47,96.0032 C6030.09,103.5132 6026.08,111.7332 6028.96,119.3532 C6036.11,121.0832 6043.41,119.0432 6050.48,120.4832 C6050.96,120.9532 6051.83,121.4232 6051.84,121.9032 C6051.931,128.5432 6051.9,135.1932 6051.9,141.7732 C6053,142.5632 6053.99,143.8732 6055.01,143.9032 C6061,144.1032 6067,143.9832 6073,144.0332 C6073.57,144.0432 6074.13,144.4732 6074.7,144.7032 C6075.14,145.1932 6075.94,145.6732 6075.94,146.1732 C6076.03,152.8132 6076,159.4632 6076,166.0532 C6077.181,166.7432 6078.24,167.9132 6079.32,167.9232 C6092.641,168.0432 6105.97,167.9832 6119.29,168.0432 C6120.5,168.0432 6121.71,168.6032 6122.91,168.9032 C6123.271,169.4332 6123.95,169.9432 6123.95,170.4632 C6124.03,177.0832 6124,183.7032 6124,190.0032 C6123.21,190.7932 6122.75,191.6632 6122.27,191.6732 C6116.98,191.7632 6111.69,191.7332 6105.9,191.7332 C6104.35,193.6732 6102.7,195.7332 6100.18,198.8632 C6098.92,203.0732 6101.23,209.1032 6099.22,214.7832 C6098.721,215.1932 6098.23,215.9532 6097.73,215.9532 C6076.431,216.0132 6055.141,216.0032 6034,216.0032 C6031.96,218.0432 6030.07,219.9332 6028.09,221.9032 C6028.09,227.1232 6028.09,232.4232 6028.09,237.8032 C6028.96,238.4832 6029.91,239.8632 6030.89,239.9032 C6036.88,240.1032 6042.88,239.9832 6048.88,240.0332 C6049.46,240.0332 6050.04,240.4132 6050.29,240.5032 C6051.02,241.1632 6051.931,241.6032 6051.94,242.0532 C6052.03,248.7132 6052,255.3732 6052,262.3532 C6059.21,266.3332 6067.45,262.2032 6074.83,264.8232 C6075.23,265.3532 6075.94,265.8532 6075.95,266.3632 C6076.03,272.9932 6076,279.6232 6076,285.8532 C6077.04,287.5432 6078.13,288.0332 6079.51,288.0232 C6085.51,287.9832 6091.51,287.9732 6097.5,288.0532 C6098.021,288.0532 6098.54,288.7132 6099.43,289.3132 C6101.05,296.0932 6099.08,303.3932 6100.471,310.5232 C6103.92,313.3732 6108.04,311.4632 6111.82,311.9932 C6115.63,312.5232 6119.68,310.8732 6123.391,313.3032 C6125.21,320.3232 6122.81,327.6432 6124.57,334.5832 C6125.17,335.1232 6125.65,335.9432 6126.14,335.9532 C6140.78,336.0132 6155.431,336.0032 6170.03,336.0032 C6172.54,340.5632 6172.54,340.5632 6171.08,359.2532 C6165.46,361.2332 6159.44,359.0532 6153.71,360.3032 C6151.82,362.1832 6149.94,364.0732 6148.03,365.9832 C6148.03,371.2732 6148.03,376.5932 6148.03,381.9032 C6146.971,382.6132 6145.95,383.9132 6144.92,383.9132 C6116.27,384.0232 6087.62,384.0032 6058.95,384.0032 C6055.9,385.3832 6053.98,387.9932 6052.18,390.2832 C6052.18,395.8132 6052.18,401.0932 6052.18,406.1832 C6052.84,406.8432 6053.3,407.7132 6053.78,407.7232 C6060.41,407.8832 6067.04,407.9032 6073.681,408.0532 C6074.19,408.0632 6074.68,408.7932 6075.391,409.3532 C6077.25,416.2132 6074.88,423.5332 6076.55,430.5532 C6077.06,431.0632 6077.53,431.9332 6078,431.9432 C6084.66,432.0332 6091.32,432.0032 6098.39,432.0032 C6102.311,439.1832 6098.23,447.4132 6100.8,454.8132 C6101.311,455.2132 6101.81,455.9432 6102.311,455.9532 C6108.95,456.0332 6115.58,456.0032 6121.87,456.0032 C6123.5,457.0132 6124.021,458.0932 6124.01,459.4732 C6123.98,465.4632 6123.97,471.4632 6124.04,477.4532 C6124.05,477.9832 6124.681,478.5032 6125.29,479.4332 C6132.061,481.0032 6139.351,479.1432 6146.49,480.4432 C6149.4,483.8732 6147.45,487.9932 6147.99,491.7732 C6148.52,495.5832 6146.9,499.6332 6149.3,503.4132 C6154.41,504.7832 6159.7,503.7432 6164.92,503.9632 C6169.58,504.1532 6174.25,504.0032 6178.91,504.0032 C6184.16,504.0032 6189.41,504.0032 6194.03,504.0032 C6195.09,505.1232 6195.931,505.5932 6195.94,506.0732 C6196.03,512.7332 6196,519.3832 6196,526.1332 C6190.61,529.9532 6184.42,526.6132 6177.23,528.9832 C6176.65,529.5232 6174.75,531.2832 6172.78,533.1132 C6170.76,538.7732 6173.04,544.7932 6171.5,550.5032 C6171.02,550.9732 6170.61,551.7632 6170.07,551.8532 C6168.78,552.0832 6167.44,552.0032 6166.12,552.0032 C6138.14,552.0032 6110.16,552.0032 6081.84,552.0032 C6080.221,553.7932 6078.44,555.7532 6076.34,558.0732 C6075.35,563.3632 6076.48,569.1432 6075.83,575.2232 C6083.98,576.7632 6091.23,575.3632 6098.33,576.3332 C6098.81,576.8132 6099.681,577.2732 6099.69,577.7532 C6099.86,584.3832 6099.89,591.0032 6100.05,597.6332 C6100.061,598.1432 6100.771,598.6432 6101.35,599.4132 C6108.181,601.2032 6115.5,598.9232 6122.54,600.5432 C6123.03,601.0332 6123.9,601.4932 6123.91,601.9732 C6124,608.6332 6123.97,615.2832 6123.97,621.9232 C6125.04,622.6332 6126.05,623.8732 6127.11,623.9132 C6133.1,624.1032 6139.1,623.9832 6145.1,624.0332 C6145.66,624.0432 6146.21,624.5232 6146.771,624.7732 C6147.181,625.2732 6147.94,625.7632 6147.95,626.2732 C6148.03,632.9032 6148,639.5432 6148,646.3832 C6155.4,650.2332 6163.63,646.0832 6171.33,648.9932 C6172.94,656.0332 6171.21,663.3132 6172.41,670.4532 C6175.82,673.4432 6179.94,671.6332 6183.73,671.9332 C6187.58,672.2432 6191.47,672.0032 6194.641,672.0032 C6195.48,673.7732 6195.96,674.3332 6195.97,674.8932 C6196.01565,680.2232 6196.04,685.5532 6195.97,690.8832 C6195.96,692.1332 6195.59,693.3732 6195.42,694.3932 C6194.851,695.0232 6194.41,695.9332 6193.96,695.9432 C6188.63,696.0432 6183.3,696.0032 6178,696.0032 C6176.09,697.9132 6174.21,699.7932 6172.33,701.6732 C6170.971,707.4132 6173.32,713.4332 6171.25,718.9032 C6170.38,719.3932 6169.84,719.9632 6169.3,719.9632 C6108.07,720.0032 6046.83,720.0032 5986.18,720.0032 C5983.76,722.3232 5981.84,724.1632 5980,725.9232 C5980,764.0532 5980,802.0332 5980,840.0032" id="Fill-63" fill="#90ABB7"></path>
            <path d="M3004,840.0032 C2980,840.0032 2956,840.0032 2932,840.0032 C2926.9,817.8832 2932.52,795.2332 2929.06,773.3932 C2923.07,766.7832 2914.39,772.7032 2908.16,767.8632 C2903.7,762.3332 2908.01,754.9132 2902.84,746.0632 C2850.08,745.8232 2795.47,746.1232 2740.6,745.9032 C2736.94,736.4832 2736.92,728.3032 2740,720.0032 C2746.67,720.0032 2753.33,720.0032 2760,720.0032 C2765.14,712.6332 2758.95,703.3832 2764,696.0032 C2770.67,696.0032 2777.33,696.0032 2784,696.0032 C2789.14,688.6332 2782.95,679.3832 2788,672.0032 C2794.67,672.0032 2801.33,672.0032 2808,672.0032 C2813.14,664.6332 2806.95,655.3832 2812,648.0032 C2818.67,648.0032 2825.33,648.0032 2832,648.0032 C2835.98,641.7832 2833.14,635.3332 2833.86,628.2632 C2818.35,623.4332 2802.98,628.0132 2789.19,625.1232 C2783.12,618.2832 2788.8,609.8132 2783.85,603.7532 C2777.97,599.8832 2770.7,603.9532 2763.65,599.8132 C2761.07,592.3632 2760.87,584.2332 2764,576.0032 C2778.67,576.0032 2793.33,576.0032 2808,576.0032 C2813.14,568.6332 2806.95,559.3832 2812,552.0032 C2818.67,552.0032 2825.33,552.0032 2832,552.0032 C2837.14,544.6332 2830.95,535.3832 2836,528.0032 C2842.67,528.0032 2849.33,528.0032 2856,528.0032 C2859.98,521.7832 2857.14,515.3332 2857.86,508.2632 C2842.35,503.4332 2826.98,508.0132 2813.19,505.1232 C2807.12,498.2832 2812.8,489.8132 2807.85,483.7532 C2801.97,479.8832 2794.7,483.9532 2787.65,479.8132 C2785.07,472.3632 2784.87,464.2332 2788,456.0032 C2802.67,456.0032 2817.33,456.0032 2832,456.0032 C2837.14,448.6332 2830.95,439.3832 2836,432.0032 C2842.67,432.0032 2849.33,432.0032 2856,432.0032 C2861.14,424.6332 2854.95,415.3832 2860,408.0032 C2866.67,408.0032 2873.33,408.0032 2880,408.0032 C2883.54,401.7732 2882.12,395.3532 2881.01,389.0632 C2875.01,382.8432 2866.53,388.5832 2860.05,383.9732 C2855.79,378.4932 2859.68,371.2932 2856.87,364.8832 C2851.43,358.8232 2842.94,364.4232 2835.3,359.5032 C2833.32,352.3532 2832.77,344.2332 2836,336.0032 C2850.67,336.0032 2865.33,336.0032 2880,336.0032 C2885.14,328.6332 2878.95,319.3832 2884,312.0032 C2890.67,312.0032 2897.33,312.0032 2904,312.0032 C2909.14,304.6332 2902.95,295.3832 2908,288.0032 C2914.67,288.0032 2921.33,288.0032 2928,288.0032 C2933.14,280.6332 2926.95,271.3832 2932,264.0032 C2938.67,264.0032 2945.33,264.0032 2952,264.0032 C2957.14,256.6332 2950.95,247.3832 2956,240.0032 C2964,240.0032 2972,240.0032 2980,240.0032 C2985.05,247.3832 2978.86,256.6332 2984,264.0032 C2990.67,264.0032 2997.33,264.0032 3004,264.0032 C3009.05,271.3832 3002.86,280.6332 3008,288.0032 C3014.67,288.0032 3021.33,288.0032 3028,288.0032 C3033.05,295.3832 3026.86,304.6332 3032,312.0032 C3038.67,312.0032 3045.33,312.0032 3052,312.0032 C3057.05,319.3832 3050.86,328.6332 3056,336.0032 C3070.67,336.0032 3085.33,336.0032 3100,336.0032 C3104.3,343.5732 3100.51,351.4232 3102.01,357.9632 C3094.92,364.9332 3086.49,359.4332 3080.01,363.9432 C3075.67,369.4732 3079.78,376.7232 3076.66,383.1232 C3071.3,389.1832 3062.76,383.4332 3056,387.9232 C3052.93,394.2932 3052.76,401.0932 3056,408.0032 C3062.67,408.0032 3069.33,408.0032 3076,408.0032 C3081.05,415.3832 3074.86,424.6332 3080,432.0032 C3086.67,432.0032 3093.33,432.0032 3100,432.0032 C3105.05,439.3832 3098.86,448.6332 3104,456.0032 C3118.67,456.0032 3133.33,456.0032 3148,456.0032 C3151.54,463.6032 3150.07,471.3332 3148.98,478.8032 C3142.79,485.0132 3134.32,479.3732 3128.01,483.8932 C3123.74,489.5232 3127.82,496.8032 3124.11,504.0832 C3110.52,508.8332 3095.09,503.7032 3080.46,507.1132 C3076.85,514.2632 3076.82,521.0832 3080,528.0032 C3086.67,528.0032 3093.33,528.0032 3100,528.0032 C3105.05,535.3832 3098.86,544.6332 3104,552.0032 C3110.67,552.0032 3117.33,552.0032 3124,552.0032 C3129.05,559.3832 3122.86,568.6332 3128,576.0032 C3142.67,576.0032 3157.33,576.0032 3172,576.0032 C3175.54,583.6032 3174.07,591.3332 3172.98,598.8032 C3166.79,605.0132 3158.32,599.3732 3152.01,603.8932 C3147.74,609.5232 3151.82,616.8032 3148.11,624.0832 C3134.52,628.8332 3119.09,623.7032 3104.46,627.1132 C3100.85,634.2632 3100.82,641.0832 3104,648.0032 C3110.67,648.0032 3117.33,648.0032 3124,648.0032 C3129.05,655.3832 3122.86,664.6332 3128,672.0032 C3134.67,672.0032 3141.33,672.0032 3148,672.0032 C3153.05,679.3832 3146.86,688.6332 3152,696.0032 C3158.67,696.0032 3165.33,696.0032 3172,696.0032 C3177.05,703.3832 3170.86,712.6332 3176,720.0032 C3182.67,720.0032 3189.33,720.0032 3196,720.0032 C3199.93,727.6232 3197.19,735.3732 3197.73,745.7832 C3141.94,746.2732 3087.3,745.7232 3034.01,746.0932 C3027.61,753.2132 3031.65,760.5632 3028.72,766.9432 C3023.45,773.2332 3014.77,767.3732 3007.42,772.5332 C3002.89,794.1732 3009.27,817.4832 3004,840.0032" id="Fill-64" fill="#A6BCC5"></path>
            <path d="M1012,840.0032 C988,840.0032 964,840.0032 940,840.0032 C934.898,817.8832 940.517,795.2332 937.065,773.3932 C931.068,766.7832 922.39,772.7032 916.159,767.8632 C911.696,762.3332 916.006,754.9132 910.839,746.0632 C858.082,745.8232 803.469,746.1132 748.597,745.9032 C744.941,736.4832 744.922,728.3032 748,720.0032 C754.667,720.0032 761.333,720.0032 768,720.0032 C773.144,712.6332 766.952,703.3832 772,696.0032 C778.667,696.0032 785.333,696.0032 792,696.0032 C797.144,688.6332 790.952,679.3832 796,672.0032 C802.667,672.0032 809.333,672.0032 816,672.0032 C821.144,664.6332 814.952,655.3832 820,648.0032 C826.667,648.0032 833.333,648.0032 840,648.0032 C843.428,641.7632 842.262,635.3732 840.691,627.8932 C826.352,623.4332 810.982,628.0132 797.186,625.1232 C791.123,618.2832 796.797,609.8132 791.849,603.7432 C785.911,600.2432 778.798,603.3832 771.888,600.4932 C769.07,592.3632 768.869,584.2332 772,576.0032 C786.667,576.0032 801.333,576.0032 816,576.0032 C821.144,568.6332 814.952,559.3832 820,552.0032 C826.667,552.0032 833.333,552.0032 840,552.0032 C845.144,544.6332 838.952,535.3832 844,528.0032 C850.667,528.0032 857.333,528.0032 864,528.0032 C867.428,521.7632 866.262,515.3732 864.691,507.8932 C850.352,503.4332 834.982,508.0132 821.186,505.1232 C815.123,498.2832 820.797,489.8132 815.849,483.7432 C809.911,480.2432 802.798,483.3832 795.888,480.4932 C793.07,472.3632 792.869,464.2332 796,456.0032 C810.667,456.0032 825.333,456.0032 840,456.0032 C845.143,448.6332 838.952,439.3832 844,432.0032 C850.667,432.0032 857.333,432.0032 864,432.0032 C869.143,424.6332 862.952,415.3832 868,408.0032 C874.667,408.0032 881.333,408.0032 888,408.0032 C891.538,401.7732 890.124,395.3532 888.996,388.9632 C882.968,383.0232 874.558,388.4632 868.187,384.1532 C863.791,378.4932 867.679,371.2932 864.868,364.8832 C859.431,358.8232 850.941,364.4232 843.3,359.5032 C841.317,352.3532 840.771,344.2332 844,336.0032 C858.667,336.0032 873.333,336.0032 888,336.0032 C893.143,328.6332 886.952,319.3832 892,312.0032 C898.667,312.0032 905.333,312.0032 912,312.0032 C917.143,304.6332 910.952,295.3832 916,288.0032 C922.667,288.0032 929.333,288.0032 936,288.0032 C941.143,280.6332 934.952,271.3832 940,264.0032 C946.667,264.0032 953.333,264.0032 960,264.0032 C965.143,256.6332 958.952,247.3832 964,240.0032 C972,240.0032 980,240.0032 988,240.0032 C993.048,247.3832 986.857,256.6332 992,264.0032 C998.667,264.0032 1005.33,264.0032 1012,264.0032 C1017.05,271.3832 1010.86,280.6332 1016,288.0032 C1022.67,288.0032 1029.33,288.0032 1036,288.0032 C1041.05,295.3832 1034.86,304.6332 1040,312.0032 C1046.67,312.0032 1053.33,312.0032 1060,312.0032 C1065.05,319.3832 1058.86,328.6332 1064,336.0032 C1078.67,336.0032 1093.33,336.0032 1108,336.0032 C1112.3,343.5732 1108.51,351.4232 1110.01,357.9632 C1102.92,364.9332 1094.49,359.4332 1088.01,363.9432 C1083.67,369.4732 1087.78,376.7232 1084.66,383.1232 C1079.3,389.1832 1070.76,383.4332 1064,387.9232 C1060.93,394.2932 1060.76,401.0932 1064,408.0032 C1070.67,408.0032 1077.33,408.0032 1084,408.0032 C1089.05,415.3832 1082.86,424.6332 1088,432.0032 C1094.67,432.0032 1101.33,432.0032 1108,432.0032 C1113.05,439.3832 1106.86,448.6332 1112,456.0032 C1126.67,456.0032 1141.33,456.0032 1156,456.0032 C1159.54,463.6032 1158.07,471.3332 1156.98,478.8032 C1150.79,485.0132 1142.32,479.3732 1135.89,483.9832 C1132,489.5632 1135.48,496.7432 1132.5,503.9432 C1118.52,508.8332 1103.09,503.7032 1088.46,507.1132 C1084.85,514.2632 1084.82,521.0832 1088,528.0032 C1094.67,528.0032 1101.33,528.0032 1108,528.0032 C1113.05,535.3832 1106.86,544.6332 1112,552.0032 C1118.67,552.0032 1125.33,552.0032 1132,552.0032 C1137.05,559.3832 1130.86,568.6332 1136,576.0032 C1150.67,576.0032 1165.33,576.0032 1180,576.0032 C1183.54,583.6032 1182.07,591.3332 1180.98,598.8032 C1174.79,605.0132 1166.32,599.3732 1159.89,603.9832 C1156,609.5632 1159.48,616.7432 1156.5,623.9432 C1142.52,628.8332 1127.09,623.7032 1112.46,627.1132 C1108.85,634.2632 1108.82,641.0832 1112,648.0032 C1118.67,648.0032 1125.33,648.0032 1132,648.0032 C1137.05,655.3832 1130.86,664.6332 1136,672.0032 C1142.67,672.0032 1149.33,672.0032 1156,672.0032 C1161.05,679.3832 1154.86,688.6332 1160,696.0032 C1166.67,696.0032 1173.33,696.0032 1180,696.0032 C1185.05,703.3832 1178.86,712.6332 1184,720.0032 C1190.67,720.0032 1197.33,720.0032 1204,720.0032 C1207.93,727.6232 1205.19,735.3732 1205.73,745.7832 C1149.94,746.2732 1095.3,745.7132 1042.01,746.0932 C1035.61,753.2132 1039.65,760.5632 1036.72,766.9432 C1031.45,773.2332 1022.77,767.3732 1015.42,772.5332 C1010.89,794.1732 1017.27,817.4832 1012,840.0032" id="Fill-65" fill="#A6BCC5"></path>
            <path d="M5572,840.0032 C5548,840.0032 5524,840.0032 5500,840.0032 C5490.79,830.0432 5493.29,817.5732 5492.69,805.7832 C5492.25,797.1932 5493.46,788.4432 5489.7,778.9432 C5479.83,772.8132 5469.39,765.7032 5464.94,752.9032 C5434.28,749.9632 5405,751.8432 5375.79,751.3632 C5363.14,751.1532 5350.46,750.9332 5337.82,751.4032 C5320.93,752.0332 5305.94,748.9432 5296.85,733.4432 C5277.48,729.6632 5258.79,732.0332 5240.23,731.2932 C5230.28,730.9032 5220.04,731.7532 5212,724.0032 C5211.53,722.4832 5211.93,720.9832 5213.42,720.6832 C5215.93,720.1832 5218.54,720.0332 5221.11,720.0332 C5274.83,719.9932 5328.55,720.0032 5382.271,720.0032 C5388.88,720.0032 5395.5,720.0032 5402,720.0032 C5402.58,719.4232 5403.43,718.9732 5403.46,718.4732 C5403.78,713.2432 5403.96,708.0032 5404.2,702.0632 C5405.521,700.6532 5407.28,698.7532 5409.13,696.7632 C5414.74,694.7832 5420.73,697.0032 5426.44,695.5632 C5426.91,695.0932 5427.77,694.6332 5427.78,694.1532 C5427.93,687.5432 5427.97,680.9332 5427.95,674.3232 C5427.95,673.8232 5427.21,673.3232 5426.61,672.5532 C5419.8,670.8832 5412.53,673.0032 5405.5,671.5032 C5405.02,671.0232 5404.15,670.5632 5404.14,670.0832 C5404.04,664.7932 5404.08,659.4932 5404.08,654.2532 C5403.02,653.4632 5402.07,652.1632 5401.04,652.0932 C5394.51,651.6432 5387.9,652.6732 5381.41,651.3332 C5379.92,651.0332 5379.53,649.5232 5380,648.0032 C5383.86,642.8132 5391.601,642.9132 5395.3,637.5632 C5393.43,628.2832 5384.14,632.4132 5380,628.0032 C5380.46,626.4932 5380.05,625.2132 5378.59,624.6632 C5377.44,624.2232 5376.141,624.0432 5374.9,624.0332 C5369.61,623.9632 5364.32,624.0232 5359.04,623.9732 C5358.471,623.9732 5357.9,623.5532 5357.33,623.3332 C5356.89,622.8632 5356.06,622.3832 5356.06,621.9032 C5355.97,615.2932 5356,608.6832 5356,602.0732 C5354.98,601.3832 5353.98,600.1332 5352.94,600.0932 C5346.99,599.9032 5341.04,600.0232 5335.1,599.9732 C5334.52,599.9732 5333.95,599.5832 5333.661,599.4832 C5332.971,598.8532 5332.07,598.4132 5332.06,597.9632 C5331.96,592.6732 5332,587.3932 5332,582.1032 C5330.99,581.4032 5330.01,580.1632 5328.96,580.0932 C5322.45,579.6432 5315.87,580.6832 5309.4,579.3332 C5307.92,579.0232 5307.54,577.5132 5308,576.0032 C5317.94,566.7632 5330.38,570.0032 5342.01,569.1832 C5349.78,568.6332 5357.8,570.4232 5367.75,565.8632 C5356.09,561.3232 5345.89,563.3932 5336.06,562.8232 C5326.28,562.2632 5315.99,563.8932 5308,556.0032 C5307.53,554.4732 5307.93,553.0632 5309.43,552.6632 C5311.27,552.1732 5313.25,552.0332 5315.17,552.0332 C5342.5,551.9932 5369.83,552.0132 5397.15,551.9832 C5399.05,551.9832 5400.95,551.6932 5402.521,551.5632 C5403.21,550.6832 5403.94,550.1832 5403.95,549.6832 C5404.03,544.3832 5404,539.0732 5404,534.0032 C5406.11,531.8932 5408,530.0032 5409.94,528.0632 C5415.2,528.0632 5420.51,528.0632 5425.79,528.0632 C5426.55,527.0032 5427.87,526.0232 5427.9,525.0032 C5428.1,519.0032 5428.021,513.0032 5427.97,507.0032 C5427.96,506.4332 5427.53,505.8632 5427.29,505.2932 C5426.81,504.8632 5426.32,504.0632 5425.83,504.0532 C5411.181,503.9932 5396.54,504.0032 5381.67,504.0032 C5377.68,496.6832 5381.9,488.4432 5378.95,480.5832 C5372.02,479.2032 5364.75,480.6732 5357.65,479.6532 C5357.181,479.1832 5356.31,478.7232 5356.3,478.2432 C5356.2,472.9432 5356.24,467.6432 5356.24,462.5332 C5355.061,461.5632 5354.15,460.1732 5353.161,460.1032 C5346.59,459.6532 5339.95,460.6632 5333.43,459.3532 C5331.92,459.0532 5331.53,457.5332 5332,456.0032 C5342.01,446.6832 5354.51,450.2532 5366.14,449.5032 C5374.69,448.9532 5383.39,450.2832 5391.61,447.2432 C5406.7,428.5232 5424.75,412.8732 5442.471,394.7032 C5425.41,387.5432 5420.26,367.9732 5404,360.0032 C5404,354.0332 5404,348.0632 5404,342.0932 C5402.98,341.3932 5401.96,340.1032 5400.94,340.0932 C5387.01,339.9632 5373.07,340.0032 5359.14,340.0032 C5357.34,339.9932 5356.42,338.8032 5356,336.0032 C5387.29,336.0032 5418.58,336.0032 5449.87,336.0032 C5450.58,334.9932 5451.87,334.0032 5451.9,332.9632 C5452.1,326.9832 5451.98,320.9832 5452.03,314.9932 C5452.04,314.4232 5452.47,313.8632 5452.71,313.2932 C5453.2,312.8632 5453.68,312.0632 5454.18,312.0632 C5460.82,311.9732 5467.46,312.0032 5474.33,312.0032 C5478.32,304.7032 5474.13,296.4732 5476.84,289.1432 C5477.42,288.7332 5477.94,288.0532 5478.46,288.0532 C5485.07,287.9832 5491.69,288.0032 5498.54,288.0032 C5501.97,280.4332 5498.19,272.2532 5500.89,264.6832 C5508.141,262.8932 5515.431,264.9832 5522.5,263.5032 C5522.97,263.0332 5523.84,262.5732 5523.85,262.0932 C5523.94,255.4432 5523.91,248.8032 5523.91,242.2132 C5525,241.4332 5525.99,240.1332 5527.021,240.1032 C5533,239.9032 5539,239.9832 5544.99,240.0332 C5545.561,240.0432 5546.13,240.4632 5546.7,240.7032 C5547.13,241.1832 5547.94,241.6632 5547.94,242.1532 C5548.03,248.8032 5548,255.4432 5548,262.3332 C5555.28,266.3332 5563.51,262.1532 5570.86,264.8432 C5571.26,265.4132 5571.95,265.9232 5571.95,266.4332 C5572.03,273.0532 5572,279.6732 5572,286.5132 C5579.54,290.0232 5587.74,286.1432 5595.34,288.9232 C5597.08,296.1232 5595.05,303.4232 5596.49,310.5432 C5599.95,313.3532 5604.05,311.6532 5607.84,311.9432 C5611.69,312.2232 5615.57,312.0032 5619.061,312.0032 C5621.2,320.3232 5618.82,327.6432 5620.57,334.5832 C5621.16,335.1232 5621.65,335.9432 5622.13,335.9532 C5653.42,336.0132 5684.71,336.0032 5716,336.0032 C5716.47,337.5232 5716.07,338.9332 5714.58,339.3332 C5712.75,339.8232 5710.79,339.9632 5708.88,339.9732 C5696.27,340.0332 5683.67,339.9932 5671.06,340.0332 C5670.49,340.0332 5669.92,340.4432 5669.34,340.6632 C5668.9,341.1332 5668.07,341.6132 5668.06,342.0932 C5667.97,348.0632 5668,354.0332 5668,360.0032 C5651.74,367.9732 5646.59,387.5432 5629.52,394.7032 C5646.7,412.5232 5664.43,427.6232 5680.04,446.8732 C5698.13,455.3032 5721.26,442.0332 5740,456.0032 C5740.47,457.5232 5740.07,458.9332 5738.58,459.3332 C5736.76,459.8232 5734.79,459.9432 5732.88,459.9732 C5728.24,460.0632 5723.6,459.9732 5718.96,460.0332 C5718.4,460.0432 5717.84,460.4832 5717.27,460.7332 C5716.85,461.2132 5716.06,461.6932 5716.05,462.1932 C5715.97,467.4832 5716,472.7732 5716,478.0332 C5714.87,478.7132 5713.83,479.8832 5712.75,479.9132 C5706.79,480.0932 5700.82,479.9832 5694.86,480.0432 C5694.3,480.0432 5693.75,480.5332 5693.2,480.8032 C5692.8,481.3032 5692.06,481.7932 5692.05,482.2932 C5691.97,488.9132 5692,495.5232 5692,501.9332 C5691.061,503.3832 5690,504.0032 5688.67,504.0032 C5676.07,504.0032 5663.48,503.9832 5650.88,504.0232 C5648.99,504.0332 5647.1,504.2932 5645.521,504.4232 C5644.82,505.2632 5644.06,505.7532 5644.05,506.2532 C5643.97,512.8632 5644,519.4832 5644,526.3732 C5651.28,530.2532 5659.45,526.2532 5666.81,528.8132 C5667.22,529.3332 5667.94,529.8332 5667.95,530.3332 C5668.03,536.9432 5668,543.5532 5668,549.9132 C5668.96,551.4132 5670.03,552.0032 5671.37,552.0032 C5699.87,552.0032 5728.38,551.9932 5756.88,552.0332 C5758.79,552.0332 5760.76,552.1832 5762.58,552.6732 C5764.07,553.0732 5764.47,554.4832 5764,556.0032 C5754.061,565.2432 5741.62,562.0032 5729.99,562.8232 C5722.221,563.3732 5714.2,561.5832 5704.25,566.1332 C5715.91,570.6732 5726.11,568.6232 5735.94,569.1832 C5745.72,569.7432 5756.01,568.1132 5764,576.0032 C5764.47,577.5332 5764.07,578.9432 5762.57,579.3432 C5760.74,579.8332 5758.76,579.9432 5756.851,579.9732 C5752.19,580.0632 5747.53,579.9732 5742.87,580.0432 C5742.31,580.0432 5741.76,580.5332 5741.2,580.8032 C5740.8,581.3032 5740.06,581.7932 5740.05,582.2932 C5739.97,587.5932 5740,592.8932 5740,597.8932 C5739.01,599.4732 5737.93,600.0132 5736.57,600.0132 C5730.58,599.9932 5724.59,599.9732 5718.601,600.0432 C5718.07,600.0532 5717.54,600.6632 5716.59,601.2532 C5715.12,608.0232 5716.74,615.2932 5715.63,622.3832 C5715.16,622.8532 5714.69,623.7232 5714.21,623.7332 C5708.92,623.8232 5703.62,623.7932 5698.42,623.7932 C5696.84,625.2932 5695.48,626.7232 5693.96,627.9532 C5693.55,628.2832 5692.67,628.0032 5692,628.0032 C5686.99,630.3132 5680.431,629.3732 5676.8,635.1332 C5678.08,643.9832 5688.49,641.9832 5692,648.0032 C5692,655.3032 5692,662.6032 5692,669.9132 C5693.02,670.6032 5694.02,671.8732 5695.06,671.9132 C5701.03,672.1032 5707.01,671.9832 5712.98,672.0332 C5713.55,672.0432 5714.12,672.4632 5714.69,672.6932 C5715.13,673.1732 5715.94,673.6532 5715.94,674.1432 C5716.03,680.7732 5716,687.4032 5716,694.0232 C5719.2,697.8132 5723.45,695.5432 5727.181,695.9132 C5731.03,696.3032 5734.95,696.0032 5738.15,696.0032 C5739.19,697.2932 5739.94,697.7832 5739.95,698.2832 C5740.03,704.9032 5740,711.5232 5740,717.9232 C5740.94,719.3932 5742.01,720.0032 5743.351,720.0032 C5779.86,720.0032 5816.36,719.9932 5852.87,720.0332 C5854.78,720.0332 5856.75,720.1832 5858.58,720.6732 C5860.07,721.0732 5860.47,722.4832 5860,724.0032 C5851.96,731.7432 5841.72,731.0232 5831.771,731.2732 C5813.82,731.7332 5795.82,730.4532 5774.9,732.8232 C5765.97,753.9532 5745.59,751.1632 5726.19,751.3532 C5686.99,751.7432 5647.75,750.3032 5608.59,752.3232 C5601.55,764.6332 5592.69,773.3432 5582.44,778.8432 C5574.471,799.4132 5586.21,821.8732 5572,840.0032" id="Fill-66" fill="#A6BCC5"></path>
            <path d="M4972,456.0032 C4972.47,457.5232 4972.07,458.9332 4970.58,459.3332 C4968.76,459.8232 4966.79,459.9432 4964.88,459.9732 C4959.67,460.0532 4954.46,460.0032 4949.91,460.0032 C4948.85,461.2132 4948.06,461.6932 4948.06,462.1932 C4947.97,467.4832 4948,472.7732 4948,478.0332 C4946.871,478.7132 4945.83,479.8832 4944.75,479.9132 C4938.79,480.0932 4932.82,479.9832 4926.86,480.0432 C4926.3,480.0432 4925.75,480.5332 4925.2,480.8032 C4924.8,481.3032 4924.06,481.7932 4924.05,482.2932 C4923.97,488.9132 4924,495.5232 4924,501.9332 C4923.061,503.3832 4922,504.0032 4920.67,504.0032 C4908.07,504.0032 4895.48,503.9832 4882.88,504.0232 C4880.99,504.0332 4879.1,504.2932 4877.521,504.4232 C4876.82,505.2632 4876.06,505.7532 4876.05,506.2532 C4875.97,512.8632 4876,519.4832 4876,526.3732 C4883.28,530.2532 4891.45,526.2532 4898.81,528.8132 C4899.22,529.3332 4899.94,529.8332 4899.95,530.3332 C4900.03,536.9432 4900,543.5532 4900,549.9132 C4900.96,551.4132 4902.03,552.0032 4903.371,552.0032 C4931.871,552.0032 4960.38,551.9932 4988.88,552.0332 C4990.79,552.0332 4992.76,552.1832 4994.58,552.6732 C4996.07,553.0732 4996.47,554.4832 4996,556.0032 C4986.2,566.3032 4971.96,559.4332 4958.95,565.7832 C4971.28,573.0332 4986.44,565.5632 4996,576.0032 C4996.47,577.5332 4996.07,578.9432 4994.57,579.3432 C4992.73,579.8332 4990.76,579.8332 4988.84,579.9932 C4983.63,580.4432 4978.33,579.1732 4973.09,580.6832 C4970.34,586.4232 4973.3,592.5032 4971.38,598.8732 C4970.99,599.5032 4969.9,600.0232 4968.53,600.0132 C4962.53,599.9832 4956.54,599.9732 4950.54,600.0432 C4950.01,600.0532 4949.49,600.6932 4948.57,601.2932 C4947,608.0732 4948.86,615.3532 4947.56,622.4932 C4944.13,625.4032 4940.02,623.6432 4936.221,623.9332 C4932.38,624.2332 4928.49,624.0032 4924.971,624.0032 C4922.75,632.2832 4925.17,639.6032 4923.44,646.5732 C4922.88,647.1032 4922.4,647.9432 4921.92,647.9432 C4915.26,648.0332 4908.61,648.0032 4901.66,648.0032 C4897.66,655.2432 4901.82,663.4732 4899.17,670.8432 C4898.63,671.2432 4898.13,671.9532 4897.61,671.9532 C4890.99,672.0332 4884.36,672.0032 4878,672.0032 C4877.27,672.7332 4876.4,673.1932 4876.38,673.6732 C4876.19,680.2932 4876.08,686.9132 4876.05,693.5232 C4876.04,694.0432 4876.72,694.5632 4877.32,695.4332 C4884.11,697.0732 4891.4,695.0632 4898.54,696.4932 C4901.36,699.9432 4899.65,704.0432 4899.94,707.8432 C4900.23,711.6832 4900,715.5732 4900,718.7932 C4904.44,720.6832 4907.76,719.9632 4910.99,719.9632 C4968.271,720.0132 5025.55,719.9932 5082.84,720.0332 C5085.42,720.0332 5088.05,720.1732 5090.57,720.6732 C5092.07,720.9732 5092.47,722.4732 5092,724.0032 C5074.29,737.8332 5052.82,727.0132 5030.27,734.5332 C5021.77,753.4432 5001.64,751.1532 4982.15,751.3632 C4942.95,751.7932 4903.69,749.8632 4864.25,752.6832 C4857.601,764.7032 4848.57,773.2532 4838.35,778.9332 C4830.42,799.3932 4842.18,821.8432 4828,840.0032 C4804,840.0032 4780,840.0032 4756,840.0032 C4746.79,830.0432 4749.29,817.5732 4748.69,805.7832 C4748.25,797.1932 4749.46,788.4432 4745.7,778.9432 C4735.83,772.8132 4725.39,765.7032 4720.94,752.9032 C4690.28,749.9632 4661,751.8432 4631.79,751.3632 C4619.14,751.1532 4606.46,750.9332 4593.82,751.4032 C4576.93,752.0332 4561.94,748.9432 4552.851,733.4432 C4533.48,729.6632 4514.79,732.0332 4496.23,731.2932 C4486.28,730.9032 4476.04,731.7532 4468,724.0032 C4467.53,722.4832 4467.93,720.9832 4469.42,720.6832 C4471.93,720.1832 4474.54,720.0332 4477.11,720.0332 C4530.83,719.9932 4584.55,720.0032 4638.271,720.0032 C4644.88,720.0032 4651.5,720.0032 4658,720.0032 C4658.58,719.4232 4659.43,718.9732 4659.46,718.4732 C4659.78,713.2432 4659.96,708.0032 4660.2,702.0632 C4661.521,700.6532 4663.28,698.7532 4665.13,696.7632 C4670.74,694.7832 4676.73,697.0032 4682.44,695.5632 C4682.91,695.0932 4683.78,694.6332 4683.79,694.1532 C4683.93,687.5432 4683.97,680.9332 4683.95,674.3232 C4683.95,673.8232 4683.21,673.3232 4682.61,672.5532 C4675.8,670.8832 4668.53,673.0032 4661.5,671.5032 C4661.02,671.0232 4660.15,670.5632 4660.14,670.0832 C4660.04,664.7932 4660.08,659.4932 4660.08,654.2532 C4659.02,653.4632 4658.07,652.1632 4657.04,652.0932 C4650.51,651.6432 4643.9,652.6732 4637.41,651.3332 C4635.92,651.0332 4635.53,649.5232 4636,648.0032 C4639.86,642.8132 4647.6,642.9132 4651.3,637.5632 C4649.43,628.2832 4640.14,632.4132 4636,628.0032 C4636.46,626.4932 4636.05,625.2132 4634.59,624.6632 C4633.44,624.2232 4632.141,624.0432 4630.9,624.0332 C4625.61,623.9632 4620.32,624.0232 4615.04,623.9732 C4614.471,623.9632 4613.9,623.5532 4613.33,623.3332 C4612.89,622.8632 4612.06,622.3832 4612.06,621.9032 C4611.97,615.2932 4612,608.6832 4612,602.0732 C4610.98,601.3832 4609.98,600.1332 4608.94,600.0932 C4602.99,599.9032 4597.04,600.0232 4591.101,599.9732 C4590.52,599.9732 4589.95,599.5832 4589.65,599.4832 C4588.971,598.8532 4588.07,598.4132 4588.06,597.9632 C4587.96,592.6732 4588,587.3932 4588,582.1032 C4586.99,581.4032 4586.01,580.1632 4584.96,580.0932 C4578.45,579.6432 4571.871,580.6832 4565.4,579.3332 C4563.92,579.0232 4563.54,577.5132 4564,576.0032 C4573.94,566.7632 4586.38,570.0032 4598.01,569.1832 C4605.78,568.6332 4613.8,570.4232 4623.75,565.8632 C4612.09,561.3232 4601.89,563.3932 4592.06,562.8232 C4582.28,562.2632 4571.99,563.8932 4564,556.0032 C4563.53,554.4732 4563.93,553.0632 4565.43,552.6632 C4567.27,552.1732 4569.25,552.0332 4571.17,552.0332 C4598.5,551.9932 4625.83,552.0132 4653.15,551.9832 C4655.05,551.9832 4656.95,551.6932 4658.521,551.5632 C4659.21,550.6832 4659.94,550.1832 4659.95,549.6832 C4660.03,544.3832 4660,539.0732 4660,534.0032 C4662.11,531.8932 4664,530.0032 4665.94,528.0632 C4671.2,528.0632 4676.51,528.0632 4681.79,528.0632 C4682.55,527.0032 4683.87,526.0232 4683.9,525.0032 C4684.1,519.0032 4684.021,513.0032 4683.97,507.0032 C4683.96,506.4332 4683.53,505.8632 4683.29,505.2932 C4682.81,504.8632 4682.32,504.0632 4681.83,504.0532 C4667.181,503.9932 4652.54,504.0032 4637.67,504.0032 C4633.68,496.6832 4637.9,488.4432 4634.95,480.5832 C4628.02,479.2032 4620.75,480.6732 4613.65,479.6532 C4613.181,479.1832 4612.31,478.7132 4612.3,478.2432 C4612.2,472.9432 4612.24,467.6432 4612.24,462.5332 C4611.061,461.5632 4610.15,460.1732 4609.161,460.1032 C4602.59,459.6532 4595.95,460.6632 4589.43,459.3532 C4587.92,459.0532 4587.53,457.5332 4588,456.0032 C4598.01,446.6832 4610.51,450.2532 4622.14,449.5032 C4630.69,448.9532 4639.39,450.2832 4647.61,447.2432 C4662.7,428.5232 4680.75,412.8732 4698.471,394.7032 C4681.41,387.5432 4676.26,367.9732 4660,360.0032 C4660,354.0332 4660,348.0632 4660,342.0932 C4658.98,341.3932 4657.96,340.1032 4656.94,340.0932 C4643.01,339.9632 4629.07,340.0032 4615.14,340.0032 C4613.34,339.9932 4612.42,338.8032 4612,336.0032 C4643.29,336.0032 4674.58,336.0032 4705.86,336.0032 C4706.58,334.9932 4707.88,334.0032 4707.9,332.9732 C4708.09,326.4132 4708,319.8432 4708,313.9232 C4709.19,312.8632 4709.68,312.0632 4710.17,312.0632 C4716.811,311.9732 4723.46,312.0032 4730.33,312.0032 C4734.32,304.7132 4730.14,296.4732 4732.84,289.1432 C4733.42,288.7332 4733.931,288.0532 4734.44,288.0532 C4741.06,287.9832 4747.68,288.0032 4754.53,288.0032 C4757.99,280.4532 4754.181,272.2632 4756.9,264.6732 C4764.13,262.9132 4771.42,264.9632 4778.49,263.5132 C4778.96,263.0432 4779.83,262.5832 4779.84,262.1032 C4779.93,255.4632 4779.9,248.8132 4779.9,242.2432 C4781,241.4532 4781.98,240.1332 4783,240.1032 C4788.98,239.9032 4794.98,239.9832 4800.97,240.0332 C4801.54,240.0332 4802.11,240.4632 4802.68,240.6832 C4803.12,241.1732 4803.94,241.6532 4803.94,242.1432 C4804.03,248.7832 4804,255.4332 4804,262.3332 C4811.27,266.3332 4819.5,262.1632 4826.851,264.8432 C4827.25,265.3932 4827.95,265.9032 4827.95,266.4132 C4828.03,273.0332 4828,279.6532 4828,286.4832 C4835.521,290.0832 4843.72,286.0932 4851.35,288.9732 C4853.05,296.1132 4851.08,303.3932 4852.47,310.5332 C4855.92,313.3732 4860.03,311.4632 4863.811,311.9932 C4867.62,312.5232 4871.67,310.8832 4875.38,313.2932 C4877.22,320.3032 4874.83,327.6232 4876.561,334.5732 C4877.14,335.1132 4877.62,335.9432 4878.1,335.9432 C4901.4,336.0132 4924.7,336.0032 4948,336.0032 C4948.46,337.5232 4948.07,338.9232 4946.59,339.3232 C4944.76,339.8232 4942.8,339.9632 4940.9,339.9732 C4928.32,340.0332 4915.75,339.9932 4903.17,340.0232 C4902.59,340.0332 4902.01,340.3832 4901.42,340.5832 C4900.96,341.0432 4900.09,341.5032 4900.08,341.9832 C4899.98,347.2732 4900.021,352.5632 4900.021,357.8832 C4901,358.5732 4901.96,359.8432 4903.01,359.9132 C4909.53,360.3632 4916.121,359.3332 4922.59,360.6732 C4924.08,360.9832 4924.46,362.4832 4924,364.0032 C4909.11,371.3832 4901.63,387.8332 4884.22,394.3132 C4893.12,404.8532 4908.04,407.9332 4908.07,422.0932 C4921.21,427.1432 4930.24,434.4332 4932.59,445.5332 C4946.15,453.0532 4961.41,445.2432 4972,456.0032" id="Fill-67" fill="#A6BCC5"></path>
        </g>
    </g>
</svg>