<?xml version="1.0" encoding="utf-8"?>
<!-- Generator: Adobe Illustrator 27.0.0, SVG Export Plug-In . SVG Version: 6.00 Build 0)  -->
<svg version="1.1" id="visual" xmlns="http://www.w3.org/2000/svg" xmlns:xlink="http://www.w3.org/1999/xlink" x="0px" y="0px"
	 viewBox="0 0 1531.2 140.1" style="enable-background:new 0 0 1531.2 140.1;" xml:space="preserve">
<style type="text/css">
	.st0{fill:#DDDDDD;}
</style>
<path class="st0" d="M0,5.2C0.5,5.6,17.9,2.6,28.5,15c31.3,36.7,44.8,12.3,69.1,7.1c24.3-5.4,24.5-19.6,48.8-17.2s48.8,27.2,72.8,38
	c24.2,10.7,48,7.8,72.1,3.3c24-4.3,48.5-9.8,72.8-7c24.3,2.8,48.8,13.9,73.2,9.8c24.3-3.9,48.8-23.2,73.2-33.5
	C534.8,4.9,559.3,3,583.6,7.3c24.3,4.4,48.8,14.8,73.2,24.5c24.3,9.6,48.8,18.2,72.8,22.6c24.2,4.3,48,4.3,72.1,1.9
	c24-2.6,48.5-7.4,72.8-6.5s48.8,7.6,73.2-0.9c24.3-8.7,48.8-32.8,73.2-42.6c24.3-10,48.8-5.6,73.2-2.6c24.3,3.1,48.8,5,73.2,7.8
	s48.8,6.5,72.8,13.5c24.2,7.2,48,17.6,72.1,16.5c24-1.3,48.5-14.3,72.8-23.2c24.3-9.1,38.3,2,62.6,3.1c30.5-0.2,42.4-10.3,52.6-13.5
	c9.4-2.9,31-2.6,31-2.6v134.9h-12.2c-12.1,0-36.6,0-60.9,0s-48.8,0-73.2,0c-24.3,0-48.8,0-72.8,0c-24.2,0-48,0-72.1,0
	c-24,0-48.5,0-72.8,0s-48.8,0-73.2,0c-24.3,0-48.8,0-73.2,0s-48.8,0-73.2,0s-48.8,0-73.2,0c-24.3,0-48.8,0-72.8,0
	c-24.2,0-48,0-72.1,0c-24,0-48.5,0-72.8,0s-48.8,0-73.2,0s-48.8,0-73.2,0c-24.3,0-48.8,0-73.2,0c-24.3,0-48.8,0-73.2,0
	s-48.8,0-72.8,0c-24.2,0-48,0-72.1,0c-24,0-48.5,0-72.8,0s-48.8,0-73.2,0s-48.8,0-60.9,0H0.1L0,5.2z"/>
</svg>
