<?xml version="1.0" encoding="utf-8"?>
<!-- Generator: Adobe Illustrator 27.0.0, SVG Export Plug-In . SVG Version: 6.00 Build 0)  -->
<svg version="1.1" id="visual" xmlns="http://www.w3.org/2000/svg" xmlns:xlink="http://www.w3.org/1999/xlink" x="0px" y="0px"
	 viewBox="0 0 900 74.6" style="enable-background:new 0 0 900 74.6;" xml:space="preserve">
<style type="text/css">
	.st0{fill:#FFFFFF;}
</style>
<path class="st0" d="M0,6.5L0,6.5c20,0,28.7,11.2,43,8.4C57.3,11.9,71.7,1.3,86,2.6s28.7,14.7,42.8,20.5c14.2,5.8,28.2,4.2,42.4,1.8
	c14.1-2.3,28.5-5.3,42.8-3.8s28.7,7.5,43,5.3c14.3-2.1,28.7-12.5,43-18.1c14.3-5.7,28.7-6.7,43-4.4c14.3,2.4,28.7,8,43,13.2
	s28.7,9.8,42.8,12.2c14.2,2.3,28.2,2.3,42.4,1c14.1-1.4,28.5-4,42.8-3.5s28.7,4.1,43-0.5c14.3-4.7,28.7-17.7,43-23
	c14.3-5.4,28.7-3,43-1.4c14.3,1.7,28.7,2.7,43,4.2s28.7,3.5,42.8,7.3c14.2,3.9,28.2,9.5,42.4,8.9c14.1-0.7,28.5-7.7,42.8-12.5
	c14.3-4.9,28.7-7.5,43-6.9c30,2.6,22.3,3.5,43,3.5l0,0l0,69.2h-7.2c-7.1,0-21.5,0-35.8,0s-28.7,0-43,0s-28.7,0-42.8,0
	c-14.2,0-28.2,0-42.4,0c-14.1,0-28.5,0-42.8,0s-28.7,0-43,0s-28.7,0-43,0s-28.7,0-43,0s-28.7,0-43,0s-28.7,0-42.8,0
	c-14.2,0-28.2,0-42.4,0c-14.1,0-28.5,0-42.8,0s-28.7,0-43,0s-28.7,0-43,0s-28.7,0-43,0c-14.3,0-28.7,0-43,0s-28.7,0-42.8,0
	c-14.2,0-28.2,0-42.4,0c-14.1,0-28.5,0-42.8,0s-28.7,0-43,0s-28.7,0-35.8,0H0L0,6.5z"/>
</svg>
